Coordinates
version=1
nRows=13
nColumns=34
inDegrees=yes

Units are S.I. units (second, meters, Newtons, ...)
If the header above contains a line with 'inDegrees', this indicates whether rotational values are in degrees (yes) or radians (no).

endheader
time	pelvis_tilt	pelvis_list	pelvis_rotation	pelvis_tx	pelvis_ty	pelvis_tz	hip_flexion_r	hip_adduction_r	hip_rotation_r	knee_angle_r	ankle_angle_r	subtalar_angle_r	mtp_angle_r	hip_flexion_l	hip_adduction_l	hip_rotation_l	knee_angle_l	ankle_angle_l	subtalar_angle_l	mtp_angle_l	lumbar_extension	lumbar_bending	lumbar_rotation	arm_flex_r	arm_add_r	arm_rot_r	elbow_flex_r	pro_sup_r	arm_flex_l	arm_add_l	arm_rot_l	elbow_flex_l	pro_sup_l
      1.82500000	    -17.02028421	     -1.56922922	    -13.98767687	     -9.09534547	      1.27574284	      1.02651686	      0.33015350	    -11.39184532	     -6.97273046	      0.00000000	     23.20872100	     35.00000000	      0.00000000	      0.54291424	      1.96544323	    -31.27376484	     13.55241166	     25.60996910	     -1.90457461	      0.00000000	     44.77163012	      9.65447678	     10.25679951	    -14.71892379	    -15.23116567	     31.32129869	     51.26849088	     83.89256071	    -21.83092512	     -2.28895001	      7.25282105	     49.87526968	    111.67278300
      1.82916670	    -16.95774154	     -1.86628567	    -13.40974385	     -9.09507885	      1.27599117	      1.02578380	      0.15599953	    -11.08251015	     -7.27216253	      0.00000000	     23.15447377	     35.00000000	      0.00000000	      0.42131619	      1.63924954	    -30.83517759	     13.63585514	     25.60772710	     -1.66975800	      0.00000000	     44.76254499	      9.49882741	      9.92013198	    -14.95450194	    -15.16774772	     30.93994691	     51.40295013	     83.99166785	    -21.56841660	     -2.33235742	      7.46476741	     49.64080136	    111.78380818
      1.83333330	    -16.87790232	     -2.13155228	    -12.88983663	     -9.09497816	      1.27614503	      1.02507714	     -0.02529751	    -10.81787919	     -7.51321403	      0.00000000	     23.16129134	     35.00000000	      0.00000000	      0.26567623	      1.36884167	    -30.43513547	     13.70261265	     25.66207386	     -1.47228996	      0.00000000	     44.70923968	      9.35115841	      9.60231493	    -15.16182966	    -15.10454486	     30.48862032	     51.57624837	     84.10986299	    -21.32034149	     -2.36671926	      7.69600879	     49.37617010	    111.92364673
      1.83750000	    -16.87718251	     -2.28311830	    -12.62769142	     -9.09504089	      1.27605613	      1.02478265	     -0.04130182	    -10.66637154	     -7.35154832	      0.00000000	     23.16239189	     35.00000000	      0.00000000	      0.12549416	      1.22907607	    -30.27911513	     13.66467415	     25.65666906	     -1.38837394	      0.00000000	     44.75059535	      9.24518411	      9.50226154	    -15.25479735	    -15.07876210	     30.42227419	     51.60674508	     84.13408004	    -21.20590335	     -2.37651859	      7.72508794	     49.35622573	    111.95019607
      1.84166670	    -16.74812801	     -2.58768613	    -12.14190255	     -9.09533750	      1.27601475	      1.02399745	     -0.30674717	    -10.37322113	     -7.74120422	      0.00000000	     23.33097861	     35.00000000	      0.00000000	     -0.11924884	      0.94010577	    -29.88628448	     13.78325088	     25.87263655	     -1.16457893	      0.00000000	     44.54263403	      9.18725525	      9.07395931	    -15.37091181	    -15.07366082	     29.88528073	     51.87389496	     84.25969420	    -20.99814633	     -2.36178936	      7.95889104	     49.05585104	    112.12659251
      1.84583330	    -16.74934992	     -2.74873864	    -11.96964495	     -9.09586495	      1.27568677	      1.02372193	     -0.33571329	    -10.20551385	     -7.58000392	      0.00000000	     23.48073231	     35.00000000	      0.00000000	     -0.31525883	      0.83350123	    -29.69657252	     13.73063662	     25.94764353	     -1.06889277	      0.00000000	     44.53387545	      9.22870834	      8.98801781	    -15.44665938	    -15.04891611	     29.72744808	     51.96238521	     84.31633060	    -20.86349380	     -2.38206634	      8.00382693	     48.99169265	    112.19492176
      1.85000000	    -16.82241689	     -2.84275097	    -11.88721121	     -9.09678160	      1.27517801	      1.02351842	     -0.24743639	    -10.09310854	     -7.56183752	      0.00000000	     23.55071109	     35.00000000	      0.00000000	     -0.44787661	      0.78290683	    -29.68859748	     13.63997033	     26.02637099	     -1.07561991	      0.00000000	     44.51882904	      9.17964412	      9.00297455	    -15.38600581	    -15.07386241	     29.67604193	     51.99335607	     84.32540917	    -20.83036700	     -2.35868309	      8.01929151	     48.98136853	    112.20884838
      1.85416670	    -16.75961107	     -3.09012664	    -11.90018669	     -9.09797611	      1.27479209	      1.02327440	     -0.34421409	     -9.84573194	     -7.43616420	      0.00000000	     23.95923962	     35.00000000	      0.00000000	     -0.73420621	      0.60450497	    -29.61073159	     13.67783182	     26.50877711	     -1.06103647	      0.00000000	     44.30403288	      9.41456970	      8.84988735	    -15.35538756	    -15.20897739	     29.35127359	     52.20526068	     84.41620846	    -20.69426169	     -2.23198522	      8.12365077	     48.82777716	    112.34496587
      1.85833330	    -16.84630757	     -3.14461633	    -11.99433553	     -9.09933040	      1.27413582	      1.02326308	     -0.23611103	     -9.77239280	     -7.46447204	      0.00000000	     24.08902400	     35.00000000	      0.00000000	     -0.89345068	      0.62693099	    -29.63500479	     13.53472185	     26.64735644	     -1.07925308	      0.00000000	     44.30046649	      9.53253557	      8.89510919	    -15.20182605	    -15.22534670	     29.26496275	     52.29110704	     84.43963512	    -20.56281558	     -2.22158993	      8.11919527	     48.82577417	    112.37758307
      1.86250000	    -16.76709086	     -3.25536994	    -12.48426346	     -9.10116868	      1.27382104	      1.02347593	     -0.19875296	     -9.67905012	     -6.98141299	      0.00000000	     24.28312930	     35.00000000	      0.00000000	     -1.20220696	      0.62654948	    -30.08894394	     13.48473764	     26.98603941	     -1.10192907	      0.00000000	     44.01243975	     10.06509967	      9.24925334	    -15.19912513	    -15.41176693	     28.93248513	     52.69603674	     84.68970289	    -20.30075206	     -2.05013661	      8.12116380	     48.54477308	    112.70092985
      1.86666670	    -16.84271022	     -3.17476847	    -12.78432163	     -9.10273756	      1.27318113	      1.02349431	     -0.05536746	     -9.75187355	     -6.94031584	      0.00000000	     24.57917300	     35.00000000	      0.00000000	     -1.26609594	      0.81555443	    -30.22037927	     13.40776310	     27.26914108	     -1.21640853	      0.00000000	     43.99176689	     10.20716123	      9.42458221	    -15.03252933	    -15.53503393	     28.82768455	     52.75198825	     84.74577107	    -20.26798842	     -1.95129240	      8.14173472	     48.51311275	    112.78033981
      1.87083330	    -16.90492263	     -3.09312625	    -13.36079638	     -9.10433133	      1.27263804	      1.02394545	      0.15231139	     -9.82460755	     -6.49887007	      0.00000000	     24.75178724	     35.00000000	      0.00000000	     -1.34335524	      1.00026214	    -30.58838210	     13.30586166	     27.52847544	     -1.46306501	      0.00000000	     43.90877482	     10.51685311	      9.85977529	    -14.83040116	    -15.66465368	     28.78209355	     52.83375558	     84.85975364	    -20.23279457	     -1.83408830	      8.10878803	     48.45536600	    112.92478329
      1.87500000	    -16.93080308	     -2.94266280	    -13.95822840	     -9.10558429	      1.27212866	      1.02437765	      0.33886275	     -9.98496993	     -6.18211007	      0.00000000	     24.86935097	     35.00000000	      0.00000000	     -1.38838571	      1.25698652	    -30.98849327	     13.23529424	     27.63344239	     -1.68509171	      0.00000000	     43.84656858	     10.86680091	     10.30776059	    -14.65289840	    -15.79526224	     28.80587523	     52.88322051	     84.97804400	    -20.17351271	     -1.72460153	      8.04149174	     48.41643307	    113.07236011
